<?xml version="1.0" encoding="UTF-8"?>
<svg width="1151.5px" height="1735.2px" enable-background="new 0 0 1151.492 1735.227" version="1.1" viewBox="0 0 1151.5 1735.2" xml:space="preserve" xmlns="http://www.w3.org/2000/svg" xmlns:cc="http://creativecommons.org/ns#" xmlns:dc="http://purl.org/dc/elements/1.1/" xmlns:rdf="http://www.w3.org/1999/02/22-rdf-syntax-ns#"><metadata><rdf:RDF><cc:Work rdf:about=""><dc:format>image/svg+xml</dc:format><dc:type rdf:resource="http://purl.org/dc/dcmitype/StillImage"/></cc:Work></rdf:RDF></metadata>
<path d="m519.42 1109.2c-278.66-29.251-496.42-267.01-496.42-553.26 0-223.8 132.76-416.6 323.83-503.92l-0.016 17.282c-150.12 82.015-251.94 241.33-251.94 424.45 0 209.29 185.22 445.35 424.55 479.22v-197.81c-11.34-39.211-78.419-40.309-78.419-40.309v-12.267h272.58v12.267s-67.035 1.098-78.422 40.309c0 32.571 0.106 149.11 0.106 197.81 234.89-28.938 426.32-232.12 426.32-479.22 0-184.42-102.8-342.78-254.09-424.44v-17.283c190.61 87.5 323 280.64 323 504.11 0 301.9-216.69 525.66-495.24 553.08v0.166l-3e-3 175.7-60.881 303.66-54.947-303.66z"/>

</svg>
